<svg width="24" height="24" viewBox="0 0 24 24" fill="none" xmlns="http://www.w3.org/2000/svg">
  <path d="M22.5 12.2273C22.5 11.4773 22.4318 10.75 22.3182 10.0455H12V14.1818H18.0909C17.8409 15.5 17.0909 16.5909 15.9545 17.3636V20.1364H19.3636C21.4091 18.2273 22.5 15.5 22.5 12.2273Z" fill="#4285F4"/>
  <path d="M12 22C14.7 22 16.9773 21.0455 18.6136 19.5L15.9545 16.7273C15 17.4091 13.6818 17.8182 12 17.8182C9.38636 17.8182 7.18182 15.9545 6.40909 13.5909H2.88636V16.4545C4.51364 19.6591 8.02273 22 12 22Z" fill="#34A853"/>
  <path d="M6.40909 13.5909C6.20455 12.9091 6.09091 12.1818 6.09091 11.4545C6.09091 10.7273 6.20455 10 6.40909 9.31818V6.45455H2.88636C2.20455 7.81818 1.77273 9.31818 1.77273 11.4545C1.77273 13.5909 2.20455 15.0909 2.88636 16.4545L6.40909 13.5909Z" fill="#FBBC05"/>
  <path d="M12 5.13636C13.7727 5.13636 15.3409 5.77273 16.5 6.86364L19.5 3.86364C16.9773 1.59091 14.7 0.5 12 0.5C8.02273 0.5 4.51364 2.84091 2.88636 6.45455L6.40909 9.31818C7.18182 6.95455 9.38636 5.13636 12 5.13636Z" fill="#EA4335"/>
</svg>
